<svg width="72" height="72" fill="none" xmlns="http://www.w3.org/2000/svg"><path d="M24.632 37.263l-5.684-4.42m0 0s-5.9-5.445-8.21-9.475m8.21 9.474c-3.58.842-11.495 1.516-14.527-2.526m6.948-17.053c5.053-3.79 5.053-12 5.053-12m-5.053 12c-1.264 1.263-1.264 7.58-.632 10.105m.632-10.105c-1.263.21-3.916-.505-4.421-5.053m3.79 15.158c-1.896.21-6.443-.379-9.475-4.42m44.21 17.684l6.146-4.344m0 0s6.378-5.348 8.876-9.307m-8.876 9.307c3.869.827 12.426 1.49 15.704-2.482m-7.511-16.753C54.35 9.33 54.35 1.263 54.35 1.263m5.462 11.79c1.366 1.24 1.366 7.446.683 9.928m-.683-9.928c1.366.206 4.233-.497 4.78-4.964M60.494 22.98c2.048.206 6.964-.373 10.242-4.344M51.79 45.474c0-5.581-7.635-10.106-17.053-10.106-9.418 0-17.052 4.525-17.052 10.106m12.631 3.789c0-1.395-1.697-2.526-3.79-2.526-2.092 0-3.789 1.131-3.789 2.526m25.263 0c0-1.395-1.697-2.526-3.79-2.526s-3.79 1.131-3.79 2.526M25.263 66.947c0 2.093 2.262 3.79 5.053 3.79 2.79 0 5.053-1.697 5.053-3.79v-3.79m10.105 3.79c0 2.093-2.262 3.79-5.053 3.79-2.79 0-5.052-1.697-5.052-3.79v-3.79" stroke="#1A1A1A" stroke-width="2.526" stroke-linecap="round"/><ellipse cx="35.369" cy="60" rx="3.789" ry="3.158" stroke="#1A1A1A" stroke-width="2.526" stroke-linecap="round"/></svg>